<mxfile host="app.diagrams.net" modified="2024-03-15T21:27:46.615Z" agent="5.0 (Macintosh)" etag="mzpc8zAsdyLO-J-kbV0Z" version="16.4.11" type="github">
  <diagram name="Page-1" id="7e0a89b8-554c-2b80-1dc8-d5c74ca68de4">
    <mxGraphModel dx="1186" dy="689" grid="1" gridSize="10" guides="1" tooltips="1" connect="1" arrows="1" fold="1" page="1" pageScale="1" pageWidth="1100" pageHeight="850" background="none" math="0" shadow="0">
      <root>
        <mxCell id="0" />
        <mxCell id="1" parent="0" />
        <mxCell id="TiZcmm7vWD0kwUVdRVYR-10" value="BROCHE_NIV_1" style="edgeStyle=orthogonalEdgeStyle;rounded=0;orthogonalLoop=1;jettySize=auto;html=1;endArrow=none;endFill=0;exitX=0;exitY=0.5;exitDx=0;exitDy=0;exitPerimeter=0;" parent="1" source="TiZcmm7vWD0kwUVdRVYR-9" edge="1">
          <mxGeometry x="-0.8356" y="-10" relative="1" as="geometry">
            <mxPoint x="800" y="820" as="targetPoint" />
            <Array as="points">
              <mxPoint x="800" y="40" />
            </Array>
            <mxPoint as="offset" />
          </mxGeometry>
        </mxCell>
        <mxCell id="TiZcmm7vWD0kwUVdRVYR-9" value="GPIO12" style="pointerEvents=1;verticalLabelPosition=bottom;shadow=0;dashed=0;align=center;html=1;verticalAlign=top;shape=mxgraph.electrical.signal_sources.source;aspect=fixed;points=[[0.5,0,0],[1,0.5,0],[0.5,1,0],[0,0.5,0]];elSignalType=none;elSourceType=dependent;" parent="1" vertex="1">
          <mxGeometry x="960" y="10" width="60" height="60" as="geometry" />
        </mxCell>
        <mxCell id="TiZcmm7vWD0kwUVdRVYR-12" value="BROCHE_NIV_2" style="edgeStyle=orthogonalEdgeStyle;rounded=0;orthogonalLoop=1;jettySize=auto;html=1;endArrow=none;endFill=0;" parent="1" source="TiZcmm7vWD0kwUVdRVYR-11" edge="1">
          <mxGeometry x="-0.8286" y="-10" relative="1" as="geometry">
            <mxPoint x="810" y="800" as="targetPoint" />
            <mxPoint as="offset" />
          </mxGeometry>
        </mxCell>
        <mxCell id="TiZcmm7vWD0kwUVdRVYR-11" value="GPIO5" style="pointerEvents=1;verticalLabelPosition=bottom;shadow=0;dashed=0;align=center;html=1;verticalAlign=top;shape=mxgraph.electrical.signal_sources.source;aspect=fixed;points=[[0.5,0,0],[1,0.5,0],[0.5,1,0],[0,0.5,0]];elSignalType=none;elSourceType=dependent;" parent="1" vertex="1">
          <mxGeometry x="960" y="90" width="60" height="60" as="geometry" />
        </mxCell>
        <mxCell id="TiZcmm7vWD0kwUVdRVYR-14" value="BROCHE_NIV_3" style="edgeStyle=orthogonalEdgeStyle;rounded=0;orthogonalLoop=1;jettySize=auto;html=1;endArrow=none;endFill=0;" parent="1" source="TiZcmm7vWD0kwUVdRVYR-13" edge="1">
          <mxGeometry x="-0.7931" y="-10" relative="1" as="geometry">
            <mxPoint x="820" y="780" as="targetPoint" />
            <mxPoint as="offset" />
          </mxGeometry>
        </mxCell>
        <mxCell id="TiZcmm7vWD0kwUVdRVYR-13" value="GPIO25" style="pointerEvents=1;verticalLabelPosition=bottom;shadow=0;dashed=0;align=center;html=1;verticalAlign=top;shape=mxgraph.electrical.signal_sources.source;aspect=fixed;points=[[0.5,0,0],[1,0.5,0],[0.5,1,0],[0,0.5,0]];elSignalType=none;elSourceType=dependent;" parent="1" vertex="1">
          <mxGeometry x="960" y="170" width="60" height="60" as="geometry" />
        </mxCell>
        <mxCell id="TiZcmm7vWD0kwUVdRVYR-17" value="BROCHE_NIV_4" style="edgeStyle=orthogonalEdgeStyle;rounded=0;orthogonalLoop=1;jettySize=auto;html=1;exitX=0;exitY=0.5;exitDx=0;exitDy=0;exitPerimeter=0;endArrow=none;endFill=0;" parent="1" source="TiZcmm7vWD0kwUVdRVYR-16" edge="1">
          <mxGeometry x="-0.7705" y="-10" relative="1" as="geometry">
            <mxPoint x="830" y="760" as="targetPoint" />
            <mxPoint as="offset" />
          </mxGeometry>
        </mxCell>
        <mxCell id="TiZcmm7vWD0kwUVdRVYR-16" value="GPIO22" style="pointerEvents=1;verticalLabelPosition=bottom;shadow=0;dashed=0;align=center;html=1;verticalAlign=top;shape=mxgraph.electrical.signal_sources.source;aspect=fixed;points=[[0.5,0,0],[1,0.5,0],[0.5,1,0],[0,0.5,0]];elSignalType=none;elSourceType=dependent;" parent="1" vertex="1">
          <mxGeometry x="960" y="250" width="60" height="60" as="geometry" />
        </mxCell>
        <mxCell id="TiZcmm7vWD0kwUVdRVYR-19" value="BROCHE_NIV_5" style="edgeStyle=orthogonalEdgeStyle;rounded=0;orthogonalLoop=1;jettySize=auto;html=1;endArrow=none;endFill=0;" parent="1" source="TiZcmm7vWD0kwUVdRVYR-18" edge="1">
          <mxGeometry x="-0.7222" y="-10" relative="1" as="geometry">
            <mxPoint x="840" y="740" as="targetPoint" />
            <mxPoint as="offset" />
          </mxGeometry>
        </mxCell>
        <mxCell id="TiZcmm7vWD0kwUVdRVYR-18" value="GPIO24" style="pointerEvents=1;verticalLabelPosition=bottom;shadow=0;dashed=0;align=center;html=1;verticalAlign=top;shape=mxgraph.electrical.signal_sources.source;aspect=fixed;points=[[0.5,0,0],[1,0.5,0],[0.5,1,0],[0,0.5,0]];elSignalType=none;elSourceType=dependent;" parent="1" vertex="1">
          <mxGeometry x="960" y="330" width="60" height="60" as="geometry" />
        </mxCell>
        <mxCell id="TiZcmm7vWD0kwUVdRVYR-21" value="BROCHE_NIV_6" style="edgeStyle=orthogonalEdgeStyle;rounded=0;orthogonalLoop=1;jettySize=auto;html=1;endArrow=none;endFill=0;" parent="1" source="TiZcmm7vWD0kwUVdRVYR-20" edge="1">
          <mxGeometry x="-0.6296" y="-10" relative="1" as="geometry">
            <mxPoint x="850" y="720" as="targetPoint" />
            <mxPoint as="offset" />
          </mxGeometry>
        </mxCell>
        <mxCell id="TiZcmm7vWD0kwUVdRVYR-20" value="GPIO27" style="pointerEvents=1;verticalLabelPosition=bottom;shadow=0;dashed=0;align=center;html=1;verticalAlign=top;shape=mxgraph.electrical.signal_sources.source;aspect=fixed;points=[[0.5,0,0],[1,0.5,0],[0.5,1,0],[0,0.5,0]];elSignalType=none;elSourceType=dependent;" parent="1" vertex="1">
          <mxGeometry x="960" y="410" width="60" height="60" as="geometry" />
        </mxCell>
        <mxCell id="TiZcmm7vWD0kwUVdRVYR-23" value="BROCHE_NIV_7" style="edgeStyle=orthogonalEdgeStyle;rounded=0;orthogonalLoop=1;jettySize=auto;html=1;endArrow=none;endFill=0;" parent="1" source="TiZcmm7vWD0kwUVdRVYR-22" edge="1">
          <mxGeometry x="-0.6429" y="-10" relative="1" as="geometry">
            <mxPoint x="860" y="700" as="targetPoint" />
            <mxPoint as="offset" />
          </mxGeometry>
        </mxCell>
        <mxCell id="TiZcmm7vWD0kwUVdRVYR-22" value="GPIO23" style="pointerEvents=1;verticalLabelPosition=bottom;shadow=0;dashed=0;align=center;html=1;verticalAlign=top;shape=mxgraph.electrical.signal_sources.source;aspect=fixed;points=[[0.5,0,0],[1,0.5,0],[0.5,1,0],[0,0.5,0]];elSignalType=none;elSourceType=dependent;" parent="1" vertex="1">
          <mxGeometry x="960" y="490" width="60" height="60" as="geometry" />
        </mxCell>
        <mxCell id="TiZcmm7vWD0kwUVdRVYR-25" value="BROCHE_NIV_8" style="edgeStyle=orthogonalEdgeStyle;rounded=0;orthogonalLoop=1;jettySize=auto;html=1;endArrow=none;endFill=0;" parent="1" source="TiZcmm7vWD0kwUVdRVYR-24" edge="1">
          <mxGeometry x="-0.28" y="-10" relative="1" as="geometry">
            <mxPoint x="870" y="680" as="targetPoint" />
            <Array as="points">
              <mxPoint x="930" y="600" />
              <mxPoint x="930" y="560" />
              <mxPoint x="870" y="560" />
            </Array>
            <mxPoint as="offset" />
          </mxGeometry>
        </mxCell>
        <mxCell id="TiZcmm7vWD0kwUVdRVYR-24" value="GPIO17" style="pointerEvents=1;verticalLabelPosition=bottom;shadow=0;dashed=0;align=center;html=1;verticalAlign=top;shape=mxgraph.electrical.signal_sources.source;aspect=fixed;points=[[0.5,0,0],[1,0.5,0],[0.5,1,0],[0,0.5,0]];elSignalType=none;elSourceType=dependent;" parent="1" vertex="1">
          <mxGeometry x="960" y="570" width="60" height="60" as="geometry" />
        </mxCell>
        <mxCell id="TiZcmm7vWD0kwUVdRVYR-30" value="" style="pointerEvents=1;verticalLabelPosition=bottom;shadow=0;dashed=0;align=center;html=1;verticalAlign=top;shape=mxgraph.electrical.signal_sources.signal_ground;" parent="1" vertex="1">
          <mxGeometry x="370" y="140" width="45" height="30" as="geometry" />
        </mxCell>
        <mxCell id="RYlwKXznYu_emv74p2Gy-27" value="BROCHE_POMPE" style="edgeStyle=orthogonalEdgeStyle;rounded=0;orthogonalLoop=1;jettySize=auto;html=1;exitX=1;exitY=0.5;exitDx=0;exitDy=0;exitPerimeter=0;endArrow=none;endFill=0;" parent="1" source="TiZcmm7vWD0kwUVdRVYR-32" target="RYlwKXznYu_emv74p2Gy-20" edge="1">
          <mxGeometry x="-0.0031" y="-10" relative="1" as="geometry">
            <mxPoint x="10" y="-10" as="offset" />
          </mxGeometry>
        </mxCell>
        <mxCell id="TiZcmm7vWD0kwUVdRVYR-32" value="GPIO26" style="pointerEvents=1;verticalLabelPosition=bottom;shadow=0;dashed=0;align=center;html=1;verticalAlign=top;shape=mxgraph.electrical.signal_sources.source;aspect=fixed;points=[[0.5,0,0],[1,0.5,0],[0.5,1,0],[0,0.5,0]];elSignalType=none;elSourceType=dependent;" parent="1" vertex="1">
          <mxGeometry x="10" y="90" width="60" height="60" as="geometry" />
        </mxCell>
        <mxCell id="TiZcmm7vWD0kwUVdRVYR-58" style="edgeStyle=orthogonalEdgeStyle;rounded=0;orthogonalLoop=1;jettySize=auto;html=1;entryX=0.5;entryY=1;entryDx=0;entryDy=0;endArrow=none;endFill=0;" parent="1" source="TiZcmm7vWD0kwUVdRVYR-56" target="RYlwKXznYu_emv74p2Gy-37" edge="1">
          <mxGeometry relative="1" as="geometry">
            <mxPoint x="330.45000000000005" y="657.25" as="targetPoint" />
          </mxGeometry>
        </mxCell>
        <mxCell id="TiZcmm7vWD0kwUVdRVYR-56" value="GPIO4" style="pointerEvents=1;verticalLabelPosition=bottom;shadow=0;dashed=0;align=center;html=1;verticalAlign=top;shape=mxgraph.electrical.signal_sources.source;aspect=fixed;points=[[0.5,0,0],[1,0.5,0],[0.5,1,0],[0,0.5,0]];elSignalType=none;elSourceType=dependent;" parent="1" vertex="1">
          <mxGeometry x="270" y="620" width="60" height="60" as="geometry" />
        </mxCell>
        <mxCell id="RYlwKXznYu_emv74p2Gy-1" value="3.3v" style="verticalLabelPosition=top;verticalAlign=bottom;shape=mxgraph.electrical.signal_sources.vdd;shadow=0;dashed=0;align=center;strokeWidth=1;fontSize=24;html=1;flipV=1;" parent="1" vertex="1">
          <mxGeometry x="640" y="40" width="60" height="20" as="geometry" />
        </mxCell>
        <mxCell id="RYlwKXznYu_emv74p2Gy-2" value="" style="endArrow=none;html=1;rounded=0;entryX=1;entryY=0.5;entryDx=0;entryDy=0;entryPerimeter=0;" parent="1" target="RYlwKXznYu_emv74p2Gy-14" edge="1">
          <mxGeometry width="50" height="50" relative="1" as="geometry">
            <mxPoint x="680" y="840" as="sourcePoint" />
            <mxPoint x="670" y="120" as="targetPoint" />
          </mxGeometry>
        </mxCell>
        <mxCell id="RYlwKXznYu_emv74p2Gy-3" value="Fond" style="text;html=1;strokeColor=none;fillColor=none;align=center;verticalAlign=middle;whiteSpace=wrap;rounded=0;" parent="1" vertex="1">
          <mxGeometry x="680" y="810" width="60" height="30" as="geometry" />
        </mxCell>
        <mxCell id="RYlwKXznYu_emv74p2Gy-4" value="1 pouce" style="text;html=1;strokeColor=none;fillColor=none;align=center;verticalAlign=middle;whiteSpace=wrap;rounded=0;" parent="1" vertex="1">
          <mxGeometry x="800" y="810" width="60" height="30" as="geometry" />
        </mxCell>
        <mxCell id="RYlwKXznYu_emv74p2Gy-5" value="2 pouces" style="text;html=1;strokeColor=none;fillColor=none;align=center;verticalAlign=middle;whiteSpace=wrap;rounded=0;" parent="1" vertex="1">
          <mxGeometry x="810" y="790" width="60" height="30" as="geometry" />
        </mxCell>
        <mxCell id="RYlwKXznYu_emv74p2Gy-6" value="3 pouces" style="text;html=1;strokeColor=none;fillColor=none;align=center;verticalAlign=middle;whiteSpace=wrap;rounded=0;" parent="1" vertex="1">
          <mxGeometry x="820" y="770" width="60" height="30" as="geometry" />
        </mxCell>
        <mxCell id="RYlwKXznYu_emv74p2Gy-7" value="4 pouces" style="text;html=1;strokeColor=none;fillColor=none;align=center;verticalAlign=middle;whiteSpace=wrap;rounded=0;" parent="1" vertex="1">
          <mxGeometry x="830" y="750" width="60" height="30" as="geometry" />
        </mxCell>
        <mxCell id="RYlwKXznYu_emv74p2Gy-8" value="5 pouces" style="text;html=1;strokeColor=none;fillColor=none;align=center;verticalAlign=middle;whiteSpace=wrap;rounded=0;" parent="1" vertex="1">
          <mxGeometry x="840" y="730" width="60" height="30" as="geometry" />
        </mxCell>
        <mxCell id="RYlwKXznYu_emv74p2Gy-9" value="6 pouces" style="text;html=1;strokeColor=none;fillColor=none;align=center;verticalAlign=middle;whiteSpace=wrap;rounded=0;" parent="1" vertex="1">
          <mxGeometry x="850" y="710" width="60" height="30" as="geometry" />
        </mxCell>
        <mxCell id="RYlwKXznYu_emv74p2Gy-10" value="7 pouces" style="text;html=1;strokeColor=none;fillColor=none;align=center;verticalAlign=middle;whiteSpace=wrap;rounded=0;" parent="1" vertex="1">
          <mxGeometry x="860" y="690" width="60" height="30" as="geometry" />
        </mxCell>
        <mxCell id="RYlwKXznYu_emv74p2Gy-13" value="8 pouces" style="text;html=1;strokeColor=none;fillColor=none;align=center;verticalAlign=middle;whiteSpace=wrap;rounded=0;" parent="1" vertex="1">
          <mxGeometry x="870" y="670" width="60" height="30" as="geometry" />
        </mxCell>
        <mxCell id="RYlwKXznYu_emv74p2Gy-14" value="220 Ohms" style="pointerEvents=1;verticalLabelPosition=bottom;shadow=0;dashed=0;align=center;html=1;verticalAlign=top;shape=mxgraph.electrical.resistors.resistor_2;rotation=90;" parent="1" vertex="1">
          <mxGeometry x="620" y="100" width="100" height="20" as="geometry" />
        </mxCell>
        <mxCell id="RYlwKXznYu_emv74p2Gy-15" value="Sonde de niveau" style="text;html=1;strokeColor=none;fillColor=none;align=center;verticalAlign=middle;whiteSpace=wrap;rounded=0;" parent="1" vertex="1">
          <mxGeometry x="720" y="10" width="60" height="30" as="geometry" />
        </mxCell>
        <mxCell id="RYlwKXznYu_emv74p2Gy-26" value="" style="edgeStyle=orthogonalEdgeStyle;rounded=0;orthogonalLoop=1;jettySize=auto;html=1;endArrow=none;endFill=0;" parent="1" source="RYlwKXznYu_emv74p2Gy-18" target="RYlwKXznYu_emv74p2Gy-24" edge="1">
          <mxGeometry relative="1" as="geometry" />
        </mxCell>
        <mxCell id="RYlwKXznYu_emv74p2Gy-31" style="edgeStyle=orthogonalEdgeStyle;rounded=0;orthogonalLoop=1;jettySize=auto;html=1;endArrow=classic;endFill=1;" parent="1" source="RYlwKXznYu_emv74p2Gy-18" target="RYlwKXznYu_emv74p2Gy-30" edge="1">
          <mxGeometry relative="1" as="geometry" />
        </mxCell>
        <mxCell id="RYlwKXznYu_emv74p2Gy-18" value="pompe" style="shape=mxgraph.electrical.electro-mechanical.motor_2;html=1;shadow=0;dashed=0;align=center;fontSize=30;strokeWidth=1;" parent="1" vertex="1">
          <mxGeometry x="170" y="200" width="100" height="60" as="geometry" />
        </mxCell>
        <mxCell id="RYlwKXznYu_emv74p2Gy-21" style="edgeStyle=orthogonalEdgeStyle;rounded=0;orthogonalLoop=1;jettySize=auto;html=1;exitX=0.58;exitY=0.935;exitDx=0;exitDy=0;exitPerimeter=0;entryX=0.511;entryY=0.3;entryDx=0;entryDy=0;entryPerimeter=0;endArrow=none;endFill=0;" parent="1" source="RYlwKXznYu_emv74p2Gy-19" target="TiZcmm7vWD0kwUVdRVYR-30" edge="1">
          <mxGeometry relative="1" as="geometry" />
        </mxCell>
        <mxCell id="RYlwKXznYu_emv74p2Gy-22" style="edgeStyle=orthogonalEdgeStyle;rounded=0;orthogonalLoop=1;jettySize=auto;html=1;exitX=0.58;exitY=0.135;exitDx=0;exitDy=0;exitPerimeter=0;entryX=0.5;entryY=0;entryDx=0;entryDy=0;entryPerimeter=0;endArrow=none;endFill=0;" parent="1" source="RYlwKXznYu_emv74p2Gy-19" target="RYlwKXznYu_emv74p2Gy-20" edge="1">
          <mxGeometry relative="1" as="geometry" />
        </mxCell>
        <mxCell id="RYlwKXznYu_emv74p2Gy-19" value="12 volts" style="pointerEvents=1;verticalLabelPosition=bottom;shadow=0;dashed=0;align=center;html=1;verticalAlign=top;shape=mxgraph.electrical.signal_sources.dc_source_1;" parent="1" vertex="1">
          <mxGeometry x="330" y="25" width="70" height="75" as="geometry" />
        </mxCell>
        <mxCell id="RYlwKXznYu_emv74p2Gy-23" style="edgeStyle=orthogonalEdgeStyle;rounded=0;orthogonalLoop=1;jettySize=auto;html=1;exitX=0.5;exitY=1;exitDx=0;exitDy=0;exitPerimeter=0;entryX=0.52;entryY=0.033;entryDx=0;entryDy=0;entryPerimeter=0;" parent="1" source="RYlwKXznYu_emv74p2Gy-20" target="RYlwKXznYu_emv74p2Gy-18" edge="1">
          <mxGeometry relative="1" as="geometry" />
        </mxCell>
        <mxCell id="RYlwKXznYu_emv74p2Gy-20" value="relais" style="pointerEvents=1;verticalLabelPosition=bottom;shadow=0;dashed=0;align=center;html=1;verticalAlign=top;shape=mxgraph.electrical.electro-mechanical.relay_coil;" parent="1" vertex="1">
          <mxGeometry x="230" y="103" width="70" height="35" as="geometry" />
        </mxCell>
        <mxCell id="RYlwKXznYu_emv74p2Gy-24" value="" style="pointerEvents=1;verticalLabelPosition=bottom;shadow=0;dashed=0;align=center;html=1;verticalAlign=top;shape=mxgraph.electrical.signal_sources.signal_ground;" parent="1" vertex="1">
          <mxGeometry x="198" y="300" width="45" height="30" as="geometry" />
        </mxCell>
        <mxCell id="RYlwKXznYu_emv74p2Gy-29" style="edgeStyle=orthogonalEdgeStyle;rounded=0;orthogonalLoop=1;jettySize=auto;html=1;entryX=0;entryY=0.5;entryDx=0;entryDy=0;entryPerimeter=0;endArrow=classic;endFill=1;" parent="1" source="RYlwKXznYu_emv74p2Gy-28" target="RYlwKXznYu_emv74p2Gy-18" edge="1">
          <mxGeometry relative="1" as="geometry" />
        </mxCell>
        <mxCell id="RYlwKXznYu_emv74p2Gy-35" value="BROCHE_TONNE" style="edgeStyle=orthogonalEdgeStyle;rounded=0;orthogonalLoop=1;jettySize=auto;html=1;exitX=0.855;exitY=1;exitDx=0;exitDy=-4.35;exitPerimeter=0;entryX=0.5;entryY=0;entryDx=0;entryDy=0;entryPerimeter=0;endArrow=none;endFill=0;" parent="1" source="RYlwKXznYu_emv74p2Gy-28" target="RYlwKXznYu_emv74p2Gy-34" edge="1">
          <mxGeometry x="0.207" y="50" relative="1" as="geometry">
            <mxPoint y="-5" as="offset" />
          </mxGeometry>
        </mxCell>
        <mxCell id="RYlwKXznYu_emv74p2Gy-28" value="Baril (Tonne)" style="shape=cylinder3;whiteSpace=wrap;html=1;boundedLbl=1;backgroundOutline=1;size=15;" parent="1" vertex="1">
          <mxGeometry x="70" y="290" width="60" height="80" as="geometry" />
        </mxCell>
        <mxCell id="RYlwKXznYu_emv74p2Gy-30" value="Chaudron (Évaporateur)" style="ellipse;whiteSpace=wrap;html=1;aspect=fixed;" parent="1" vertex="1">
          <mxGeometry x="330" y="290" width="80" height="80" as="geometry" />
        </mxCell>
        <mxCell id="RYlwKXznYu_emv74p2Gy-33" style="edgeStyle=orthogonalEdgeStyle;rounded=0;orthogonalLoop=1;jettySize=auto;html=1;exitX=0.5;exitY=0;exitDx=0;exitDy=0;exitPerimeter=0;entryX=0.5;entryY=1;entryDx=0;entryDy=0;entryPerimeter=0;endArrow=classic;endFill=1;" parent="1" source="RYlwKXznYu_emv74p2Gy-32" target="RYlwKXznYu_emv74p2Gy-28" edge="1">
          <mxGeometry relative="1" as="geometry" />
        </mxCell>
        <mxCell id="RYlwKXznYu_emv74p2Gy-32" value="3.3v" style="verticalLabelPosition=top;verticalAlign=bottom;shape=mxgraph.electrical.signal_sources.vdd;shadow=0;dashed=0;align=center;strokeWidth=1;fontSize=24;html=1;flipV=1;" parent="1" vertex="1">
          <mxGeometry x="10" y="230" width="60" height="20" as="geometry" />
        </mxCell>
        <mxCell id="RYlwKXznYu_emv74p2Gy-34" value="GPIO16" style="pointerEvents=1;verticalLabelPosition=bottom;shadow=0;dashed=0;align=center;html=1;verticalAlign=top;shape=mxgraph.electrical.signal_sources.source;aspect=fixed;points=[[0.5,0,0],[1,0.5,0],[0.5,1,0],[0,0.5,0]];elSignalType=none;elSourceType=dependent;" parent="1" vertex="1">
          <mxGeometry x="100" y="420" width="60" height="60" as="geometry" />
        </mxCell>
        <mxCell id="RYlwKXznYu_emv74p2Gy-36" value="Sonde de tonne vide" style="text;html=1;strokeColor=none;fillColor=none;align=center;verticalAlign=middle;whiteSpace=wrap;rounded=0;" parent="1" vertex="1">
          <mxGeometry x="40" y="400" width="60" height="30" as="geometry" />
        </mxCell>
        <mxCell id="RYlwKXznYu_emv74p2Gy-40" style="edgeStyle=orthogonalEdgeStyle;rounded=0;orthogonalLoop=1;jettySize=auto;html=1;exitX=1;exitY=0.5;exitDx=0;exitDy=0;entryX=0.5;entryY=0;entryDx=0;entryDy=0;entryPerimeter=0;endArrow=classic;endFill=1;" parent="1" source="RYlwKXznYu_emv74p2Gy-37" target="RYlwKXznYu_emv74p2Gy-39" edge="1">
          <mxGeometry relative="1" as="geometry" />
        </mxCell>
        <mxCell id="RYlwKXznYu_emv74p2Gy-37" value="T" style="verticalLabelPosition=middle;shadow=0;dashed=0;align=center;html=1;verticalAlign=middle;strokeWidth=1;shape=ellipse;fontSize=50;fontStyle=1;perimeter=ellipsePerimeter;" parent="1" vertex="1">
          <mxGeometry x="350" y="540" width="60" height="60" as="geometry" />
        </mxCell>
        <mxCell id="RYlwKXznYu_emv74p2Gy-38" value="Sonde de température" style="text;html=1;strokeColor=none;fillColor=none;align=center;verticalAlign=middle;whiteSpace=wrap;rounded=0;" parent="1" vertex="1">
          <mxGeometry x="270" y="555" width="60" height="30" as="geometry" />
        </mxCell>
        <mxCell id="RYlwKXznYu_emv74p2Gy-39" value="" style="pointerEvents=1;verticalLabelPosition=bottom;shadow=0;dashed=0;align=center;html=1;verticalAlign=top;shape=mxgraph.electrical.signal_sources.signal_ground;" parent="1" vertex="1">
          <mxGeometry x="440" y="590" width="45" height="30" as="geometry" />
        </mxCell>
        <mxCell id="RYlwKXznYu_emv74p2Gy-44" style="edgeStyle=orthogonalEdgeStyle;rounded=0;orthogonalLoop=1;jettySize=auto;html=1;exitX=0.5;exitY=0;exitDx=0;exitDy=0;exitPerimeter=0;entryX=0.5;entryY=0;entryDx=0;entryDy=0;endArrow=classic;endFill=1;" parent="1" source="RYlwKXznYu_emv74p2Gy-43" target="RYlwKXznYu_emv74p2Gy-37" edge="1">
          <mxGeometry relative="1" as="geometry" />
        </mxCell>
        <mxCell id="RYlwKXznYu_emv74p2Gy-43" value="3.3v" style="verticalLabelPosition=top;verticalAlign=bottom;shape=mxgraph.electrical.signal_sources.vdd;shadow=0;dashed=0;align=center;strokeWidth=1;fontSize=24;html=1;flipV=1;" parent="1" vertex="1">
          <mxGeometry x="350" y="470" width="60" height="20" as="geometry" />
        </mxCell>
      </root>
    </mxGraphModel>
  </diagram>
</mxfile>
